<svg xmlns="http://www.w3.org/2000/svg" viewBox="0 0 100 33" preserveAspectRatio="xMinYMin" class="logoVY">
    <text font-size="21" class="name" style="fill:#FC0;">
        <tspan x="104" y="25"/>
    </text>
    <path d="M6.7 20L9.3 11C9.5 10.4 10 9.5 11.1 9.5 12.3 9.5 13.3 10.2 13.3 11.5 13.3 11.9 13.2 12.2 13 12.7L9.6 22.4C9 24.3 8.5 25 6.9 25L6.6 25C4.8 25 4.3 24.3 3.6 22.4L0.3 12.7C0.1 12.2 0 11.9 0 11.5 0 10.2 1 9.5 2.1 9.5 3.3 9.5 3.8 10.4 4 11L6.6 20 6.7 20 6.7 20ZM48.1 22.7C48.1 24 48.9 25 50.1 25 51.3 25 52.1 24 52.1 22.7L52.1 2.3C52.1 0.9 51.3 0 50.1 0 48.9 0 48.1 0.9 48.1 2.3L48.1 22.7ZM55.5 22.7C55.5 24 56.3 25 57.5 25 58.7 25 59.6 24 59.6 22.7L59.6 11.8C59.6 10.5 58.7 9.5 57.5 9.5 56.3 9.5 55.5 10.5 55.5 11.8L55.5 22.7ZM76.2 16.4C76.2 11.7 73.8 9.4 69.5 9.4 65.1 9.4 62.7 11.7 62.7 16.4L62.7 22.7C62.7 24 63.5 25 64.7 25 66 25 66.8 24 66.8 22.7L66.8 15.7C66.8 13.8 67.8 13 69.5 13 71.2 13 72.1 14.1 72.1 15.7L72.1 22.7C72.1 24 73 25 74.2 25 75.4 25 76.2 24 76.2 22.7L76.2 16.4ZM15.4 18C15.4 22.7 17.9 25 22.2 25 26.6 25 29 22.7 29 18L29 11.7C29 10.3 28.2 9.4 27 9.4 25.8 9.4 24.9 10.4 24.9 11.7L24.9 18.7C24.9 20.6 23.9 21.4 22.2 21.4 20.5 21.4 19.6 20.3 19.6 18.7L19.6 11.7C19.6 10.3 18.7 9.4 17.6 9.4 16.4 9.4 15.5 10.4 15.5 11.7L15.5 18 15.4 18ZM86.4 9.4C81.8 9.4 78.8 12.5 78.8 17.3 78.8 22.1 81.5 25 85.3 25 87.2 25 88.4 24.4 89.1 23.7L89.1 26.1C89.1 28 88.2 29.3 85.8 29.3 83.4 29.3 82.5 28.1 81.2 28.1 80.3 28.1 79.7 28.9 79.7 29.8 79.7 31.6 83 33 85.5 33 90.7 33 93 30 93 25.5L93 12.9C93 11.5 92.3 10.9 91.1 10.3 90.2 10 88.7 9.4 86.4 9.4ZM89.1 17.1C89.1 20 88.1 21.4 86 21.4 83.9 21.4 82.9 20.3 82.9 17.3 82.9 14.6 83.9 12.9 86.5 12.9 88.2 12.9 89.1 13.7 89.1 14.2L89.1 17.1ZM43.6 18.6L35.5 18.6C35.8 20.3 36.6 21.5 38.7 21.5 40.8 21.5 41.9 20.7 42.9 20.7 43.7 20.7 44.4 21.6 44.4 22.4 44.4 24.1 41.7 24.9 38.7 24.9 34.3 24.9 31.5 21.9 31.5 17.2 31.5 12.4 34.2 9.3 38.6 9.3 43.2 9.3 45.2 12.4 45.2 16.8 45.2 18 44.8 18.6 43.6 18.6ZM41.4 15.8C41.3 13.9 40.4 12.6 38.5 12.6 36.6 12.6 35.7 13.5 35.5 15.8L41.4 15.8Z"
          fill="#FFF"/>
    <path d="M100 4.5C100 5.9 99 7 97.5 7 95.9 7 95 5.9 95 4.5 95 3 95.9 2 97.5 2 99 2 100 3 100 4.5"
          fill="#FFCC03"/>
</svg>